<?xml version="1.0" encoding="UTF-8" standalone="no"?>
<!DOCTYPE svg PUBLIC "-//W3C//DTD SVG 1.0//EN" "http://www.w3.org/TR/2001/PR-SVG-20010719/DTD/svg10.dtd">
<svg width="17cm" height="11cm" viewBox="-60 -21 340 212" xmlns="http://www.w3.org/2000/svg" xmlns:xlink="http://www.w3.org/1999/xlink">
  <text font-size="9.03111" style="fill: #000000;text-anchor:start;font-family:sans-serif;font-style:normal;font-weight:normal" x="90" y="65.9389">
    <tspan x="90" y="65.9389"></tspan>
  </text>
  <g>
    <line style="fill: none; fill-opacity:0; stroke-width: 1; stroke: #000000" x1="204" y1="70" x2="176.236" y2="70"/>
    <polyline style="fill: none; fill-opacity:0; stroke-width: 1; stroke: #000000" points="185.118,65 175.118,70 185.118,75 "/>
  </g>
  <text font-size="7.90222" style="fill: #000000;text-anchor:start;font-family:sans-serif;font-style:normal;font-weight:normal" x="208" y="72.75">
    <tspan x="208" y="72.75">Old Stack Pointer</tspan>
  </text>
  <text font-size="7.90222" style="fill: #000000;text-anchor:start;font-family:sans-serif;font-style:normal;font-weight:normal" x="75" y="230">
    <tspan x="75" y="230"></tspan>
  </text>
  <line style="fill: none; fill-opacity:0; stroke-width: 1; stroke: #000000" x1="-20" y1="70" x2="-4" y2="70"/>
  <line style="fill: none; fill-opacity:0; stroke-width: 1; stroke: #000000" x1="-20" y1="190" x2="-4" y2="190"/>
  <g>
    <line style="fill: none; fill-opacity:0; stroke-width: 1; stroke-dasharray: 4; stroke: #000000" x1="-12" y1="72.2361" x2="-12" y2="187.764"/>
    <polyline style="fill: none; fill-opacity:0; stroke-width: 1; stroke: #000000" points="-7,81.118 -12,71.118 -17,81.118 "/>
    <polyline style="fill: none; fill-opacity:0; stroke-width: 1; stroke: #000000" points="-17,178.882 -12,188.882 -7,178.882 "/>
  </g>
  <line style="fill: none; fill-opacity:0; stroke-width: 1; stroke-dasharray: 4; stroke: #000000" x1="0" y1="-20" x2="0" y2="0"/>
  <line style="fill: none; fill-opacity:0; stroke-width: 1; stroke-dasharray: 4; stroke: #000000" x1="170" y1="-20" x2="170" y2="0"/>
  <g>
    <rect style="fill: #00ff00" x="0" y="0" width="170" height="20"/>
    <rect style="fill: none; fill-opacity:0; stroke-width: 1; stroke: #000000" x="0" y="0" width="170" height="20"/>
  </g>
  <text font-size="9.03097" style="fill: #000000;text-anchor:middle;font-family:sans-serif;font-style:normal;font-weight:normal" x="85" y="13.125">
    <tspan x="85" y="13.125">Return Address</tspan>
  </text>
  <text font-size="9.03097" style="fill: #000000;text-anchor:start;font-family:sans-serif;font-style:normal;font-weight:normal" x="84" y="4">
    <tspan x="84" y="4"></tspan>
  </text>
  <g>
    <rect style="fill: #dddddd" x="0" y="20" width="170" height="20"/>
    <rect style="fill: none; fill-opacity:0; stroke-width: 1; stroke: #000000" x="0" y="20" width="170" height="20"/>
  </g>
  <text font-size="9.03111" style="fill: #000000;text-anchor:middle;font-family:sans-serif;font-style:normal;font-weight:normal" x="85" y="33.125">
    <tspan x="85" y="33.125">Local Variable 1</tspan>
  </text>
  <g>
    <rect style="fill: #cccccc" x="0" y="40" width="170" height="32"/>
    <rect style="fill: none; fill-opacity:0; stroke-width: 1; stroke-dasharray: 4; stroke: #000000" x="0" y="40" width="170" height="32"/>
  </g>
  <text font-size="9.03097" style="fill: #000000;text-anchor:middle;font-family:sans-serif;font-style:normal;font-weight:normal" x="85" y="59.125">
    <tspan x="85" y="59.125">Local Variables 2..n</tspan>
  </text>
  <line style="fill: none; fill-opacity:0; stroke-width: 1; stroke: #000000" x1="0" y1="40" x2="170" y2="40"/>
  <line style="fill: none; fill-opacity:0; stroke-width: 1; stroke: #000000" x1="0" y1="72" x2="120" y2="72"/>
  <g>
    <rect style="fill: #ff3333" x="0" y="70" width="170" height="120"/>
    <rect style="fill: none; fill-opacity:0; stroke-width: 1; stroke: #000000" x="0" y="70" width="170" height="120"/>
  </g>
  <text font-size="9.03111" style="fill: #ffffff;text-anchor:middle;font-family:sans-serif;font-style:normal;font-weight:normal" x="40" y="179.125">
    <tspan x="40" y="179.125">Red Zone</tspan>
  </text>
  <text font-size="7.9021" style="fill: #000000;text-anchor:end;font-family:sans-serif;font-style:normal;font-weight:normal" x="-20" y="132.75">
    <tspan x="-20" y="132.75">128 bytes</tspan>
  </text>
  <g>
    <rect style="fill: #ffc200" x="30" y="70" width="140" height="30"/>
    <rect style="fill: none; fill-opacity:0; stroke-width: 1; stroke: #000000" x="30" y="70" width="140" height="30"/>
  </g>
  <text font-size="9.03097" style="fill: #000000;text-anchor:middle;font-family:sans-serif;font-style:normal;font-weight:normal" x="100" y="88.125">
    <tspan x="100" y="88.125">Exception Stack Frame</tspan>
  </text>
  <g>
    <rect style="fill: #ffe000" x="30" y="100" width="140" height="30"/>
    <rect style="fill: none; fill-opacity:0; stroke-width: 1; stroke: #000000" x="30" y="100" width="140" height="30"/>
  </g>
  <text font-size="9.03097" style="fill: #000000;text-anchor:middle;font-family:sans-serif;font-style:normal;font-weight:normal" x="100" y="118.125">
    <tspan x="100" y="118.125">Register Backup</tspan>
  </text>
  <g>
    <rect style="fill: #c6db97" x="30" y="130" width="140" height="30"/>
    <rect style="fill: none; fill-opacity:0; stroke-width: 1; stroke: #000000" x="30" y="130" width="140" height="30"/>
  </g>
  <text font-size="8.46654" style="fill: #000000;text-anchor:middle;font-family:sans-serif;font-style:normal;font-weight:normal" x="100" y="147.925">
    <tspan x="100" y="147.925">Handler Function Stack Frame</tspan>
  </text>
  <line style="fill: none; fill-opacity:0; stroke-width: 1; stroke-dasharray: 4; stroke: #ff3333" x1="30" y1="70" x2="30" y2="160"/>
  <line style="fill: none; fill-opacity:0; stroke-width: 1; stroke-dasharray: 4; stroke: #ff3333" x1="30" y1="160" x2="170" y2="160"/>
  <g>
    <line style="fill: none; fill-opacity:0; stroke-width: 1; stroke: #000000" x1="204" y1="160" x2="176.236" y2="160"/>
    <polyline style="fill: none; fill-opacity:0; stroke-width: 1; stroke: #000000" points="185.118,155 175.118,160 185.118,165 "/>
  </g>
  <text font-size="7.90222" style="fill: #000000;text-anchor:start;font-family:sans-serif;font-style:normal;font-weight:normal" x="208" y="162.635">
    <tspan x="208" y="162.635">New Stack Pointer</tspan>
  </text>
</svg>
