<?xml version="1.0" encoding="UTF-8" standalone="no"?>
<!DOCTYPE svg PUBLIC "-//W3C//DTD SVG 1.0//EN" "http://www.w3.org/TR/2001/PR-SVG-20010719/DTD/svg10.dtd">
<svg width="13cm" height="4cm" viewBox="-1 -23 252 63" xmlns="http://www.w3.org/2000/svg" xmlns:xlink="http://www.w3.org/1999/xlink">
  <g>
    <rect style="fill: #00ff00" x="0" y="0" width="50" height="10"/>
    <rect style="fill: none; fill-opacity:0; stroke-width: 1; stroke: #000000" x="0" y="0" width="50" height="10"/>
  </g>
  <text font-size="9.03111" style="fill: #000000;text-anchor:middle;font-family:sans-serif;font-style:normal;font-weight:normal" x="25" y="8.125">
    <tspan x="25" y="8.125">mm0</tspan>
  </text>
  <g>
    <rect style="fill: #00ff00" x="0" y="10" width="50" height="10"/>
    <rect style="fill: none; fill-opacity:0; stroke-width: 1; stroke: #000000" x="0" y="10" width="50" height="10"/>
  </g>
  <g>
    <rect style="fill: #00ff00" x="0" y="20" width="50" height="10"/>
    <rect style="fill: none; fill-opacity:0; stroke-width: 1; stroke: #000000" x="0" y="20" width="50" height="10"/>
  </g>
  <g>
    <rect style="fill: #dddddd" x="0" y="30" width="50" height="10"/>
    <rect style="fill: none; fill-opacity:0; stroke-width: 1; stroke: #000000" x="0" y="30" width="50" height="10"/>
  </g>
  <text font-size="9.03111" style="fill: #000000;text-anchor:middle;font-family:sans-serif;font-style:normal;font-weight:normal" x="25" y="17.9931">
    <tspan x="25" y="17.9931">mm1</tspan>
  </text>
  <text font-size="9.03111" style="fill: #000000;text-anchor:middle;font-family:sans-serif;font-style:normal;font-weight:normal" x="25" y="28.125">
    <tspan x="25" y="28.125">mm2</tspan>
  </text>
  <text font-size="9.03111" style="fill: #000000;text-anchor:middle;font-family:sans-serif;font-style:normal;font-weight:normal" x="25" y="38.125">
    <tspan x="25" y="38.125">mm3</tspan>
  </text>
  <g>
    <rect style="fill: #00ff00" x="100" y="-4.44089e-15" width="50" height="10"/>
    <rect style="fill: none; fill-opacity:0; stroke-width: 1; stroke: #000000" x="100" y="-4.44089e-15" width="50" height="10"/>
  </g>
  <text font-size="9.03111" style="fill: #000000;text-anchor:middle;font-family:sans-serif;font-style:normal;font-weight:normal" x="125" y="8.125">
    <tspan x="125" y="8.125">mm0</tspan>
  </text>
  <g>
    <rect style="fill: #ff0000" x="100" y="10" width="50" height="10"/>
    <rect style="fill: none; fill-opacity:0; stroke-width: 1; stroke: #000000" x="100" y="10" width="50" height="10"/>
  </g>
  <g>
    <rect style="fill: #00ff00" x="100" y="20" width="50" height="10"/>
    <rect style="fill: none; fill-opacity:0; stroke-width: 1; stroke: #000000" x="100" y="20" width="50" height="10"/>
  </g>
  <g>
    <rect style="fill: #dddddd" x="100" y="30" width="50" height="10"/>
    <rect style="fill: none; fill-opacity:0; stroke-width: 1; stroke: #000000" x="100" y="30" width="50" height="10"/>
  </g>
  <text font-size="9.03111" style="fill: #ffffff;text-anchor:middle;font-family:sans-serif;font-style:normal;font-weight:normal" x="125" y="18.125">
    <tspan x="125" y="18.125">mm1</tspan>
  </text>
  <text font-size="9.03111" style="fill: #000000;text-anchor:middle;font-family:sans-serif;font-style:normal;font-weight:normal" x="125" y="28.125">
    <tspan x="125" y="28.125">mm2</tspan>
  </text>
  <text font-size="9.03111" style="fill: #000000;text-anchor:middle;font-family:sans-serif;font-style:normal;font-weight:normal" x="125" y="38.125">
    <tspan x="125" y="38.125">mm3</tspan>
  </text>
  <g>
    <rect style="fill: #00ff00" x="200" y="0" width="50" height="10"/>
    <rect style="fill: none; fill-opacity:0; stroke-width: 1; stroke: #000000" x="200" y="0" width="50" height="10"/>
  </g>
  <text font-size="9.03111" style="fill: #000000;text-anchor:middle;font-family:sans-serif;font-style:normal;font-weight:normal" x="225" y="8.125">
    <tspan x="225" y="8.125">mm0</tspan>
  </text>
  <g>
    <rect style="fill: #ff0000" x="200" y="10" width="50" height="10"/>
    <rect style="fill: none; fill-opacity:0; stroke-width: 1; stroke: #000000" x="200" y="10" width="50" height="10"/>
  </g>
  <g>
    <rect style="fill: #00ff00" x="200" y="20" width="50" height="10"/>
    <rect style="fill: none; fill-opacity:0; stroke-width: 1; stroke: #000000" x="200" y="20" width="50" height="10"/>
  </g>
  <g>
    <rect style="fill: #dddddd" x="200" y="30" width="50" height="10"/>
    <rect style="fill: none; fill-opacity:0; stroke-width: 1; stroke: #000000" x="200" y="30" width="50" height="10"/>
  </g>
  <text font-size="9.03111" style="fill: #ffffff;text-anchor:middle;font-family:sans-serif;font-style:normal;font-weight:normal" x="225" y="18.125">
    <tspan x="225" y="18.125">mm1</tspan>
  </text>
  <text font-size="9.03111" style="fill: #000000;text-anchor:middle;font-family:sans-serif;font-style:normal;font-weight:normal" x="225" y="28.125">
    <tspan x="225" y="28.125">mm2</tspan>
  </text>
  <text font-size="9.03111" style="fill: #000000;text-anchor:middle;font-family:sans-serif;font-style:normal;font-weight:normal" x="225" y="38.125">
    <tspan x="225" y="38.125">mm3</tspan>
  </text>
  <text font-size="7.9021" style="fill: #000000;text-anchor:middle;font-family:sans-serif;font-style:normal;font-weight:normal" x="25" y="-10.0787">
    <tspan x="25" y="-10.0787">Program</tspan>
  </text>
  <text font-size="7.9021" style="fill: #000000;text-anchor:middle;font-family:sans-serif;font-style:normal;font-weight:normal" x="125" y="-15.0175">
    <tspan x="125" y="-15.0175">Exception</tspan>
    <tspan x="125" y="-5.13977">Handler</tspan>
  </text>
  <g>
    <line style="fill: none; fill-opacity:0; stroke-width: 1; stroke: #000000" x1="50" y1="-12.8287" x2="97.7639" y2="-12.8287"/>
    <polyline style="fill: none; fill-opacity:0; stroke-width: 1; stroke: #000000" points="94.882,-10.8287 98.882,-12.8287 94.882,-14.8287 "/>
  </g>
  <g>
    <line style="fill: none; fill-opacity:0; stroke-width: 1; stroke: #000000" x1="150" y1="-12.8287" x2="197.764" y2="-12.8287"/>
    <polyline style="fill: none; fill-opacity:0; stroke-width: 1; stroke: #000000" points="194.882,-10.8287 198.882,-12.8287 194.882,-14.8287 "/>
  </g>
  <text font-size="7.9021" style="fill: #000000;text-anchor:middle;font-family:sans-serif;font-style:normal;font-weight:normal" x="225" y="-10.0787">
    <tspan x="225" y="-10.0787">Program</tspan>
  </text>
  <text font-size="6.77323" style="fill: #000000;text-anchor:middle;font-family:sans-serif;font-style:normal;font-weight:normal" x="75" y="-14.737">
    <tspan x="75" y="-14.737">Exception</tspan>
    <tspan x="75" y="-6.27032">occurs</tspan>
  </text>
  <text font-size="6.77323" style="fill: #000000;text-anchor:middle;font-family:sans-serif;font-style:normal;font-weight:normal" x="175" y="-14.737">
    <tspan x="175" y="-14.737">Exception</tspan>
    <tspan x="175" y="-6.27032">resolved</tspan>
  </text>
</svg>
