<?xml version="1.0" encoding="UTF-8" standalone="no"?>
<svg
   xmlns:dc="http://purl.org/dc/elements/1.1/"
   xmlns:cc="http://creativecommons.org/ns#"
   xmlns:rdf="http://www.w3.org/1999/02/22-rdf-syntax-ns#"
   xmlns:svg="http://www.w3.org/2000/svg"
   xmlns="http://www.w3.org/2000/svg"
   xmlns:sodipodi="http://sodipodi.sourceforge.net/DTD/sodipodi-0.dtd"
   xmlns:inkscape="http://www.inkscape.org/namespaces/inkscape"
   width="7.2973523in"
   height="4.1279249in"
   viewBox="-2141 2141 8777.1352 4929.2808"
   id="svg2"
   version="1.1"
   inkscape:version="0.91 r13725"
   sodipodi:docname="X86_Paging_64bit.svg">
  <metadata
     id="metadata370">
    <rdf:RDF>
      <cc:Work
         rdf:about="">
        <dc:format>image/svg+xml</dc:format>
        <dc:type
           rdf:resource="http://purl.org/dc/dcmitype/StillImage" />
        <dc:title />
      </cc:Work>
    </rdf:RDF>
  </metadata>
  <defs
     id="defs368" />
  <sodipodi:namedview
     pagecolor="#ffffff"
     bordercolor="#666666"
     borderopacity="1"
     objecttolerance="10"
     gridtolerance="10"
     guidetolerance="10"
     inkscape:pageopacity="0"
     inkscape:pageshadow="2"
     inkscape:window-width="1080"
     inkscape:window-height="1868"
     id="namedview366"
     showgrid="false"
     fit-margin-top="0"
     fit-margin-left="0"
     fit-margin-right="0"
     fit-margin-bottom="0"
     inkscape:zoom="1.4404005"
     inkscape:cx="383.13253"
     inkscape:cy="73.778068"
     inkscape:window-x="0"
     inkscape:window-y="0"
     inkscape:window-maximized="1"
     inkscape:current-layer="g4" />
  <g
     style="fill:none;stroke:#000000;stroke-width:8;stroke-linecap:butt;stroke-linejoin:miter"
     id="g4"
     transform="translate(-2845,-286.64442)">
    <rect
       x="8503"
       y="4015"
       width="708"
       height="3307"
       rx="0"
       style="fill:#dfdfdf"
       id="rect8" />
    <polyline
       points="3365,2598 3365,3070"
       id="polyline10" />
    <polyline
       points="3189,2598 3189,3070"
       id="polyline12" />
    <polyline
       points="3012,2598 3012,3070"
       id="polyline14" />
    <polyline
       points="2834,2598 2834,3070"
       id="polyline16" />
    <polyline
       points="2657,2598 2657,3070"
       id="polyline18" />
    <polyline
       points="2480,2598 2480,3070"
       id="polyline20" />
    <polyline
       points="2303,2598 2303,3070"
       id="polyline22" />
    <polyline
       points="2125,2456 2125,3070"
       id="polyline24" />
    <polyline
       points="1948,2598 1948,3070"
       id="polyline26" />
    <polyline
       points="1772,2598 1772,3070"
       id="polyline28" />
    <polyline
       points="1594,2598 1594,3070"
       id="polyline30" />
    <polyline
       points="1417,2598 1417,3070"
       id="polyline32" />
    <polyline
       points="1239,2598 1239,3070"
       id="polyline34" />
    <polyline
       points="1063,2598 1063,3070"
       id="polyline36" />
    <polyline
       points="886,2598 886,3070"
       id="polyline38" />
    <polyline
       points="708,2456 708,3070"
       id="polyline40" />
    <polyline
       points="3543,2456 3543,3070"
       id="polyline74" />
    <polyline
       points="-2125,2598 3543,2598"
       id="polyline76"
       transform="matrix(0.49978943,0,0,1,1772.2461,0)" />
    <polyline
       points="3543,3070 -1948,3070 -2125,3070"
       id="polyline78"
       transform="matrix(0.49786923,0,0,1,1779.0493,0)" />
    <polyline
       points="9035,2598 9035,3070"
       id="polyline80" />
    <polyline
       points="8858,2598 8858,3070"
       id="polyline82" />
    <polyline
       points="8681,2598 8681,3070"
       id="polyline84" />
    <polyline
       points="8503,2598 8503,3070"
       id="polyline86" />
    <polyline
       points="8326,2598 8326,3070"
       id="polyline88" />
    <polyline
       points="8150,2598 8150,3070"
       id="polyline90" />
    <polyline
       points="7972,2598 7972,3070"
       id="polyline92" />
    <polyline
       points="7795,2456 7795,3070"
       id="polyline94" />
    <polyline
       points="7617,2598 7617,3070"
       id="polyline96" />
    <polyline
       points="7441,2598 7441,3070"
       id="polyline98" />
    <polyline
       points="7264,2598 7264,3070"
       id="polyline100" />
    <polyline
       points="7086,2598 7086,3070"
       id="polyline102" />
    <polyline
       points="6909,2598 6909,3070"
       id="polyline104" />
    <polyline
       points="6732,2598 6732,3070"
       id="polyline106" />
    <polyline
       points="6555,2598 6555,3070"
       id="polyline108" />
    <polyline
       points="6377,2456 6377,3070"
       id="polyline110" />
    <polyline
       points="6200,2598 6200,3070"
       id="polyline112" />
    <polyline
       points="6024,2598 6024,3070"
       id="polyline114" />
    <polyline
       points="5846,2598 5846,3070"
       id="polyline116" />
    <polyline
       points="5669,2598 5669,3070"
       id="polyline118" />
    <polyline
       points="5491,2598 5491,3070"
       id="polyline120" />
    <polyline
       points="5315,2598 5315,3070"
       id="polyline122" />
    <polyline
       points="5138,2598 5138,3070"
       id="polyline124" />
    <polyline
       points="4960,2409 4960,3070"
       id="polyline126" />
    <polyline
       points="4783,2598 4783,3070"
       id="polyline128" />
    <polyline
       points="4606,2598 4606,3070"
       id="polyline130" />
    <polyline
       points="4429,2598 4429,3070"
       id="polyline132" />
    <polyline
       points="4251,2598 4251,3070"
       id="polyline134" />
    <polyline
       points="4074,2598 4074,3070"
       id="polyline136" />
    <polyline
       points="3898,2598 3898,3070"
       id="polyline138" />
    <polyline
       points="3720,2598 3720,3070"
       id="polyline140" />
    <polyline
       points="9212,2456 9212,3070"
       id="polyline142" />
    <polyline
       points="3543,2598 9212,2598"
       id="polyline144" />
    <polyline
       points="9212,3070 3720,3070 0,3070"
       id="polyline146"
       transform="matrix(0.92335242,0,0,1,706.07747,0)" />
    <rect
       x="5102"
       y="4488"
       width="1181"
       height="2362"
       rx="0"
       style="fill:#dfdfdf"
       id="rect148" />
    <rect
       x="3307"
       y="4251"
       width="1181"
       height="2362"
       rx="0"
       style="fill:#dfdfdf"
       id="rect150" />
    <rect
       x="6897"
       y="4724"
       width="1181"
       height="2362"
       rx="0"
       style="fill:#dfdfdf"
       id="rect152" />
    <rect
       x="1511"
       y="4015"
       width="1181"
       height="2362"
       rx="0"
       style="fill:#dfdfdf"
       id="rect154" />
    <rect
       x="1417"
       y="6850"
       width="1417"
       height="472"
       rx="0"
       id="rect156" />
    <rect
       x="8503"
       y="5433"
       width="708"
       height="236"
       rx="0"
       style="fill:#dfdfdf"
       id="rect158" />
    <rect
       x="5102"
       y="5669"
       width="1181"
       height="472"
       rx="0"
       id="rect160" />
    <rect
       x="3307"
       y="5433"
       width="1181"
       height="472"
       rx="0"
       id="rect162" />
    <rect
       x="6897"
       y="5905"
       width="1181"
       height="472"
       rx="0"
       id="rect164" />
    <rect
       x="1511"
       y="5196"
       width="1181"
       height="472"
       rx="0"
       id="rect166" />
    <circle
       cx="6141"
       cy="5905"
       r="47"
       style="fill:#0000ff;stroke:#0000ff;stroke-width:32"
       id="circle170" />
    <circle
       cx="4346"
       cy="5669"
       r="47"
       style="fill:#0000ff;stroke:#0000ff;stroke-width:32"
       id="circle172" />
    <circle
       cx="7937"
       cy="6141"
       r="47"
       style="fill:#0000ff;stroke:#0000ff;stroke-width:32"
       id="circle174" />
    <circle
       cx="2551"
       cy="5433"
       r="47"
       style="fill:#0000ff;stroke:#0000ff;stroke-width:32"
       id="circle176" />
    <polyline
       points="3118,3590 2834,3779"
       style="stroke:#0000ff"
       id="polyline178" />
    <polyline
       points="1322,3590 1039,3779"
       style="stroke:#0000ff"
       id="polyline180" />
    <polyline
       points="4913,3590 4629,3779"
       style="stroke:#0000ff"
       id="polyline184" />
    <polyline
       points="6519,3590 6236,3779"
       style="stroke:#0000ff"
       id="polyline186" />
    <polyline
       points="8314,3590 8031,3779"
       style="stroke:#0000ff"
       id="polyline188" />
    <circle
       cx="1653"
       cy="7086"
       r="47"
       style="fill:#0000ff;stroke:#0000ff;stroke-width:32"
       id="circle190" />
    <polyline
       points="1653,7086 1181,7086 1181,6377 1354,6377"
       style="stroke:#0000ff"
       id="polyline192" />
    <polygon
       points="1512,6377 1355,6330 1355,6425 1355,6425 "
       style="fill:#0000ff;stroke:#0000ff"
       id="polygon194" />
    <polyline
       points="7937,6141 8173,6141 8173,7322 8346,7322"
       style="stroke:#0000ff"
       id="polyline196" />
    <polygon
       points="8504,7322 8347,7275 8347,7370 8347,7370 "
       style="fill:#0000ff;stroke:#0000ff"
       id="polygon198" />
    <polyline
       points="8173,3543 8173,5669 8346,5669"
       style="stroke:#0000ff"
       id="polyline200" />
    <polygon
       points="8504,5669 8347,5622 8347,5716 8347,5716 "
       style="fill:#0000ff;stroke:#0000ff"
       id="polygon202" />
    <polyline
       points="9212,3070 9070,3307 8314,3307 8173,3543 8031,3307 7228,3307 7086,3070"
       style="stroke:#0000ff"
       id="polyline204" />
    <polyline
       points="3898,3070 4015,3307 4629,3307 4771,3543 4913,3307 5385,3307 5491,3070"
       style="stroke:#0000ff"
       id="polyline206" />
    <polyline
       points="5491,3070 5622,3307 6236,3307 6377,3543 6519,3307 6909,3307 7086,3070"
       style="stroke:#0000ff"
       id="polyline208" />
    <polyline
       points="2303,3070 2409,3307 2834,3307 2976,3543 3118,3307 3779,3307 3898,3070"
       style="stroke:#0000ff"
       id="polyline210" />
    <polyline
       points="708,3070 850,3307 1039,3307 1181,3543 1322,3307 2173,3307 2303,3070"
       style="stroke:#0000ff"
       id="polyline212" />
    <polyline
       points="4771,3543 4771,6141 4944,6141"
       style="stroke:#0000ff"
       id="polyline214" />
    <polygon
       points="5103,6141 4945,6094 4945,6188 4945,6188 "
       style="fill:#0000ff;stroke:#0000ff"
       id="polygon216" />
    <polyline
       points="6377,3543 6377,4015 6519,4157 6519,6377 6740,6377"
       style="stroke:#0000ff"
       id="polyline218" />
    <polygon
       points="6898,6377 6741,6330 6741,6425 6741,6425 "
       style="fill:#0000ff;stroke:#0000ff"
       id="polygon220" />
    <polyline
       points="6141,5905 6377,5905 6377,7086 6740,7086"
       style="stroke:#0000ff"
       id="polyline222" />
    <polygon
       points="6898,7086 6741,7039 6741,7133 6741,7133 "
       style="fill:#0000ff;stroke:#0000ff"
       id="polygon224" />
    <polyline
       points="4346,5669 4629,5669 4629,6850 4944,6850"
       style="stroke:#0000ff"
       id="polyline226" />
    <polygon
       points="5103,6850 4945,6803 4945,6897 4945,6897 "
       style="fill:#0000ff;stroke:#0000ff"
       id="polygon228" />
    <polyline
       points="2598,5433 2834,5433 2834,6614 3149,6614"
       style="stroke:#0000ff"
       id="polyline230" />
    <polygon
       points="3308,6614 3150,6566 3150,6661 3150,6661 "
       style="fill:#0000ff;stroke:#0000ff"
       id="polygon232" />
    <polyline
       points="1181,3543 1181,5669 1401,5669"
       style="stroke:#0000ff"
       id="polyline234" />
    <polygon
       points="1560,5669 1402,5622 1402,5716 1402,5716 "
       style="fill:#0000ff;stroke:#0000ff"
       id="polygon236" />
    <polyline
       points="2976,3543 2976,5905 3149,5905"
       style="stroke:#0000ff"
       id="polyline238" />
    <polygon
       points="3308,5905 3150,5858 3150,5952 3150,5952 "
       style="fill:#0000ff;stroke:#0000ff"
       id="polygon240" />
    <g
       style="fill:#000000;stroke-width:0"
       id="g242">
      <text
         xml:space="preserve"
         x="2281.8145"
         y="7165"
         font-style="normal"
         font-weight="normal"
         font-size="152"
         id="text244"
         style="font-style:normal;font-weight:normal;font-size:152px;font-family:Helvetica;text-anchor:middle">CR3 register</text>
      <text
         xml:space="preserve"
         x="3507"
         y="2551"
         font-style="normal"
         font-weight="normal"
         font-size="152"
         id="text246"
         style="font-style:normal;font-weight:normal;font-size:152px;font-family:'Helvetica Narrow';text-anchor:end">32</text>
      <text
         xml:space="preserve"
         x="2161"
         y="2551"
         font-style="normal"
         font-weight="normal"
         font-size="152"
         id="text248"
         style="font-style:normal;font-weight:normal;font-size:152px;font-family:'Helvetica Narrow';text-anchor:start">39</text>
      <text
         xml:space="preserve"
         x="2090"
         y="2551"
         font-style="normal"
         font-weight="normal"
         font-size="152"
         id="text250"
         style="font-style:normal;font-weight:normal;font-size:152px;font-family:'Helvetica Narrow';text-anchor:end">40</text>
      <text
         xml:space="preserve"
         x="744"
         y="2551"
         font-style="normal"
         font-weight="normal"
         font-size="152"
         id="text252"
         style="font-style:normal;font-weight:normal;font-size:152px;font-family:'Helvetica Narrow';text-anchor:start">47</text>
      <text
         xml:space="preserve"
         x="672"
         y="2551"
         font-style="normal"
         font-weight="normal"
         font-size="152"
         id="text254"
         style="font-style:normal;font-weight:normal;font-size:152px;font-family:'Helvetica Narrow';text-anchor:end" />
      <text
         xml:space="preserve"
         x="-672"
         y="2551"
         font-style="normal"
         font-weight="normal"
         font-size="152"
         id="text256"
         style="font-style:normal;font-weight:normal;font-size:152px;font-family:'Helvetica Narrow';text-anchor:start" />
      <text
         xml:space="preserve"
         x="-744"
         y="2551"
         font-style="normal"
         font-weight="normal"
         font-size="152"
         id="text258"
         style="font-style:normal;font-weight:normal;font-size:152px;font-family:'Helvetica Narrow';text-anchor:end" />
      <text
         xml:space="preserve"
         x="-2090"
         y="2551"
         font-style="normal"
         font-weight="normal"
         font-size="152"
         id="text260"
         style="font-style:normal;font-weight:normal;font-size:152px;font-family:'Helvetica Narrow';text-anchor:start" />
      <text
         xml:space="preserve"
         x="9176"
         y="2551"
         font-style="normal"
         font-weight="normal"
         font-size="152"
         id="text262"
         style="font-style:normal;font-weight:normal;font-size:152px;font-family:'Helvetica Narrow';text-anchor:end">0</text>
      <text
         xml:space="preserve"
         x="7759"
         y="2551"
         font-style="normal"
         font-weight="normal"
         font-size="152"
         id="text264"
         style="font-style:normal;font-weight:normal;font-size:152px;font-family:'Helvetica Narrow';text-anchor:end">8</text>
      <text
         xml:space="preserve"
         x="6342"
         y="2551"
         font-style="normal"
         font-weight="normal"
         font-size="152"
         id="text266"
         style="font-style:normal;font-weight:normal;font-size:152px;font-family:'Helvetica Narrow';text-anchor:end">16</text>
      <text
         xml:space="preserve"
         x="4924"
         y="2551"
         font-style="normal"
         font-weight="normal"
         font-size="152"
         id="text268"
         style="font-style:normal;font-weight:normal;font-size:152px;font-family:'Helvetica Narrow';text-anchor:end">24</text>
      <text
         xml:space="preserve"
         x="3579"
         y="2551"
         font-style="normal"
         font-weight="normal"
         font-size="152"
         id="text270"
         style="font-style:normal;font-weight:normal;font-size:152px;font-family:'Helvetica Narrow';text-anchor:start">31</text>
      <text
         xml:space="preserve"
         x="6413"
         y="2551"
         font-style="normal"
         font-weight="normal"
         font-size="152"
         id="text272"
         style="font-style:normal;font-weight:normal;font-size:152px;font-family:'Helvetica Narrow';text-anchor:start">15</text>
      <text
         xml:space="preserve"
         x="7830"
         y="2551"
         font-style="normal"
         font-weight="normal"
         font-size="152"
         id="text274"
         style="font-style:normal;font-weight:normal;font-size:152px;font-family:'Helvetica Narrow';text-anchor:start">7</text>
      <text
         xml:space="preserve"
         x="4996"
         y="2551"
         font-style="normal"
         font-weight="normal"
         font-size="152"
         id="text276"
         style="font-style:normal;font-weight:normal;font-size:152px;font-family:'Helvetica Narrow';text-anchor:start">23</text>
      <g
         transform="matrix(0,-1,1,0,8976,4724)"
         id="g278">
        <text
           xml:space="preserve"
           x="0"
           y="0"
           font-style="normal"
           font-weight="normal"
           font-size="404"
           id="text280"
           style="font-style:normal;font-weight:normal;font-size:404px;font-family:Helvetica;text-anchor:middle">...</text>
      </g>
      <g
         transform="matrix(0,-1,1,0,8976,6614)"
         id="g282">
        <text
           xml:space="preserve"
           x="0"
           y="0"
           font-style="normal"
           font-weight="normal"
           font-size="404"
           id="text284"
           style="font-style:normal;font-weight:normal;font-size:404px;font-family:Helvetica;text-anchor:middle">...</text>
      </g>
      <g
         transform="matrix(0,-1,1,0,9448,5622)"
         id="g286">
        <text
           xml:space="preserve"
           x="0"
           y="0"
           font-style="normal"
           font-weight="normal"
           font-size="152"
           id="text288"
           style="font-style:normal;font-weight:normal;font-size:152px;font-family:Helvetica;text-anchor:middle"><tspan
             style="font-size:200.46390561px"
             id="tspan3509">4K memory page</tspan></text>
      </g>
      <text
         xml:space="preserve"
         x="-2125"
         y="2314"
         font-style="normal"
         font-weight="normal"
         font-size="152"
         id="text290"
         style="font-style:normal;font-weight:normal;font-size:152px;font-family:Helvetica;text-anchor:start" />
      <text
         xml:space="preserve"
         x="5622"
         y="5958.457"
         font-style="normal"
         font-weight="normal"
         font-size="152"
         id="text292"
         style="font-style:normal;font-weight:normal;font-size:152px;font-family:Helvetica;text-anchor:middle"><tspan
           style="font-size:200.46391296px"
           id="tspan3497">P2 entry</tspan></text>
      <g
         transform="matrix(0,-1,1,0,5723,6614)"
         id="g296">
        <text
           xml:space="preserve"
           x="0"
           y="0"
           font-style="normal"
           font-weight="normal"
           font-size="404"
           id="text298"
           style="font-style:normal;font-weight:normal;font-size:404px;font-family:Helvetica;text-anchor:middle">...</text>
      </g>
      <g
         transform="matrix(0,-1,1,0,5723,5196)"
         id="g300">
        <text
           xml:space="preserve"
           x="0"
           y="0"
           font-style="normal"
           font-weight="normal"
           font-size="404"
           id="text302"
           style="font-style:normal;font-weight:normal;font-size:404px;font-family:Helvetica;text-anchor:middle">...</text>
      </g>
      <text
         xml:space="preserve"
         x="5692"
         y="4393"
         font-style="normal"
         font-weight="normal"
         font-size="152"
         id="text304"
         style="font-style:normal;font-weight:normal;font-size:152px;font-family:Helvetica;text-anchor:middle"><tspan
           style="font-size:200.46390561px"
           id="tspan3505">P2 table</tspan></text>
      <g
         transform="matrix(0,-1,1,0,3928,6377)"
         id="g306">
        <text
           xml:space="preserve"
           x="0"
           y="0"
           font-style="normal"
           font-weight="normal"
           font-size="404"
           id="text308"
           style="font-style:normal;font-weight:normal;font-size:404px;font-family:Helvetica;text-anchor:middle">...</text>
      </g>
      <g
         transform="matrix(0,-1,1,0,3928,4960)"
         id="g310">
        <text
           xml:space="preserve"
           x="0"
           y="0"
           font-style="normal"
           font-weight="normal"
           font-size="404"
           id="text312"
           style="font-style:normal;font-weight:normal;font-size:404px;font-family:Helvetica;text-anchor:middle">...</text>
      </g>
      <text
         xml:space="preserve"
         x="3826"
         y="5722.457"
         font-style="normal"
         font-weight="normal"
         font-size="152"
         id="text314"
         style="font-style:normal;font-weight:normal;font-size:152px;font-family:Helvetica;text-anchor:middle"><tspan
           style="font-size:200.46391296px"
           id="tspan3495">P3 entry</tspan></text>
      <text
         xml:space="preserve"
         x="3874"
         y="3968"
         font-style="normal"
         font-weight="normal"
         font-size="152"
         id="text318"
         style="font-style:normal;font-weight:normal;font-size:152px;font-family:Helvetica;text-anchor:middle" />
      <text
         xml:space="preserve"
         x="3874"
         y="4157"
         font-style="normal"
         font-weight="normal"
         font-size="152"
         id="text320"
         style="font-style:normal;font-weight:normal;font-size:152px;font-family:Helvetica;text-anchor:middle"><tspan
           style="font-size:200.46390561px"
           id="tspan3503">P3 table</tspan></text>
      <text
         xml:space="preserve"
         x="7417"
         y="6194.457"
         font-style="normal"
         font-weight="normal"
         font-size="152"
         id="text322"
         style="font-style:normal;font-weight:normal;font-size:152px;font-family:Helvetica;text-anchor:middle"><tspan
           style="font-size:200.46391296px"
           id="tspan3499">P1 entry </tspan></text>
      <g
         transform="matrix(0,-1,1,0,7519,6850)"
         id="g326">
        <text
           xml:space="preserve"
           x="0"
           y="0"
           font-style="normal"
           font-weight="normal"
           font-size="404"
           id="text328"
           style="font-style:normal;font-weight:normal;font-size:404px;font-family:Helvetica;text-anchor:middle">...</text>
      </g>
      <g
         transform="matrix(0,-1,1,0,7519,5433)"
         id="g330">
        <text
           xml:space="preserve"
           x="0"
           y="0"
           font-style="normal"
           font-weight="normal"
           font-size="404"
           id="text332"
           style="font-style:normal;font-weight:normal;font-size:404px;font-family:Helvetica;text-anchor:middle">...</text>
      </g>
      <text
         xml:space="preserve"
         x="7487"
         y="4629"
         font-style="normal"
         font-weight="normal"
         font-size="152"
         id="text334"
         style="font-style:normal;font-weight:normal;font-size:152px;font-family:Helvetica;text-anchor:middle"><tspan
           style="font-size:200.46390561px"
           id="tspan3507">P1 table</tspan></text>
      <g
         transform="matrix(0,-1,1,0,2133,6141)"
         id="g336">
        <text
           xml:space="preserve"
           x="0"
           y="0"
           font-style="normal"
           font-weight="normal"
           font-size="404"
           id="text338"
           style="font-style:normal;font-weight:normal;font-size:404px;font-family:Helvetica;text-anchor:middle">...</text>
      </g>
      <g
         transform="matrix(0,-1,1,0,2133,4724)"
         id="g340">
        <text
           xml:space="preserve"
           x="0"
           y="0"
           font-style="normal"
           font-weight="normal"
           font-size="404"
           id="text342"
           style="font-style:normal;font-weight:normal;font-size:404px;font-family:Helvetica;text-anchor:middle">...</text>
      </g>
      <text
         x="2004.2715"
         y="5486.457"
         font-style="normal"
         font-weight="normal"
         font-size="152"
         id="text344"
         style="font-style:normal;font-weight:normal;font-size:152px;font-family:Helvetica;text-anchor:middle">
        <tspan
           style="font-size:200.46390561px"
           id="tspan3493">P4 entry</tspan>
      </text>
      <text
         x="2031"
         y="5622"
         font-style="normal"
         font-weight="normal"
         font-size="152"
         id="text346"
         style="font-style:normal;font-weight:normal;font-size:152px;font-family:Helvetica;text-anchor:middle" />
      <text
         x="2078"
         y="3941.2715"
         font-style="normal"
         font-weight="normal"
         font-size="152"
         id="text348"
         style="font-style:normal;font-weight:normal;font-size:152px;font-family:Helvetica;text-anchor:middle">
        <tspan
           style="font-size:200.46391296px"
           id="tspan3501">P4 table</tspan>
      </text>
      <text
         x="3165"
         y="3732"
         font-style="normal"
         font-weight="normal"
         font-size="152"
         id="text350"
         style="font-style:normal;font-weight:normal;font-size:152px;font-family:Helvetica;text-anchor:start;fill:#0000ff">9</text>
      <text
         x="1370"
         y="3732"
         font-style="normal"
         font-weight="normal"
         font-size="152"
         id="text352"
         style="font-style:normal;font-weight:normal;font-size:152px;font-family:Helvetica;text-anchor:start;fill:#0000ff">9</text>
      <text
         x="1370"
         y="6708"
         font-style="normal"
         font-weight="normal"
         font-size="152"
         id="text354"
         style="font-style:normal;font-weight:normal;font-size:152px;font-family:Helvetica;text-anchor:start;fill:#0000ff" />
      <text
         x="4960"
         y="3732"
         font-style="normal"
         font-weight="normal"
         font-size="152"
         id="text356"
         style="font-style:normal;font-weight:normal;font-size:152px;font-family:Helvetica;text-anchor:start;fill:#0000ff">9</text>
      <text
         x="6566"
         y="3732"
         font-style="normal"
         font-weight="normal"
         font-size="152"
         id="text358"
         style="font-style:normal;font-weight:normal;font-size:152px;font-family:Helvetica;text-anchor:start;fill:#0000ff">9</text>
      <text
         x="8362"
         y="3732"
         font-style="normal"
         font-weight="normal"
         font-size="152"
         id="text360"
         style="font-style:normal;font-weight:normal;font-size:152px;font-family:Helvetica;text-anchor:start;fill:#0000ff">12</text>
      <text
         x="1181"
         y="7532.2715"
         font-style="normal"
         font-weight="normal"
         font-size="152"
         id="text364"
         style="font-style:normal;font-weight:normal;font-size:152px;font-family:Helvetica;text-anchor:start" />
    </g>
  </g>
</svg>
