<?xml version="1.0" encoding="UTF-8" standalone="no"?>
<svg
   xmlns:dc="http://purl.org/dc/elements/1.1/"
   xmlns:cc="http://creativecommons.org/ns#"
   xmlns:rdf="http://www.w3.org/1999/02/22-rdf-syntax-ns#"
   xmlns:svg="http://www.w3.org/2000/svg"
   xmlns="http://www.w3.org/2000/svg"
   xmlns:sodipodi="http://sodipodi.sourceforge.net/DTD/sodipodi-0.dtd"
   xmlns:inkscape="http://www.inkscape.org/namespaces/inkscape"
   width="9.9999952in"
   height="5.6936221in"
   viewBox="-2141 2141 12027.83 6798.9275"
   id="svg2"
   version="1.1"
   inkscape:version="0.91 r13725"
   sodipodi:docname="recursive_mapping_access_p1.svg">
  <metadata
     id="metadata370">
    <rdf:RDF>
      <cc:Work
         rdf:about="">
        <dc:format>image/svg+xml</dc:format>
        <dc:type
           rdf:resource="http://purl.org/dc/dcmitype/StillImage" />
        <dc:title></dc:title>
      </cc:Work>
    </rdf:RDF>
  </metadata>
  <defs
     id="defs368" />
  <sodipodi:namedview
     pagecolor="#ffffff"
     bordercolor="#666666"
     borderopacity="1"
     objecttolerance="10"
     gridtolerance="10"
     guidetolerance="10"
     inkscape:pageopacity="0"
     inkscape:pageshadow="2"
     inkscape:window-width="1680"
     inkscape:window-height="998"
     id="namedview366"
     showgrid="false"
     fit-margin-top="0"
     fit-margin-left="0"
     fit-margin-right="0"
     fit-margin-bottom="0"
     inkscape:zoom="1.176987"
     inkscape:cx="485.46846"
     inkscape:cy="287.22662"
     inkscape:window-x="1080"
     inkscape:window-y="568"
     inkscape:window-maximized="1"
     inkscape:current-layer="g242" />
  <g
     style="fill:none;stroke:#000000;stroke-width:8;stroke-linecap:butt;stroke-linejoin:miter"
     id="g4"
     transform="translate(-1191.2249,655.73793)">
    <rect
       x="9807.3389"
       y="3682.5488"
       width="976.54016"
       height="4561.3252"
       rx="0"
       style="fill:#dfdfdf;stroke-width:11.0343523"
       id="rect8" />
    <polyline
       points="3365,2598 3365,3070"
       id="polyline10"
       transform="matrix(1.379294,0,0,1.379294,-1920.7977,-1855.3167)" />
    <polyline
       points="3189,2598 3189,3070"
       id="polyline12"
       transform="matrix(1.379294,0,0,1.379294,-1920.7977,-1855.3167)" />
    <polyline
       points="3012,2598 3012,3070"
       id="polyline14"
       transform="matrix(1.379294,0,0,1.379294,-1920.7977,-1855.3167)" />
    <polyline
       points="2834,2598 2834,3070"
       id="polyline16"
       transform="matrix(1.379294,0,0,1.379294,-1920.7977,-1855.3167)" />
    <polyline
       points="2657,2598 2657,3070"
       id="polyline18"
       transform="matrix(1.379294,0,0,1.379294,-1920.7977,-1855.3167)" />
    <polyline
       points="2480,2598 2480,3070"
       id="polyline20"
       transform="matrix(1.379294,0,0,1.379294,-1920.7977,-1855.3167)" />
    <polyline
       points="2303,2598 2303,3070"
       id="polyline22"
       transform="matrix(1.379294,0,0,1.379294,-1920.7977,-1855.3167)" />
    <polyline
       points="2125,2456 2125,3070"
       id="polyline24"
       transform="matrix(1.379294,0,0,1.379294,-1920.7977,-1855.3167)" />
    <polyline
       points="1948,2598 1948,3070"
       id="polyline26"
       transform="matrix(1.379294,0,0,1.379294,-1920.7977,-1855.3167)" />
    <polyline
       points="1772,2598 1772,3070"
       id="polyline28"
       transform="matrix(1.379294,0,0,1.379294,-1920.7977,-1855.3167)" />
    <polyline
       points="1594,2598 1594,3070"
       id="polyline30"
       transform="matrix(1.379294,0,0,1.379294,-1920.7977,-1855.3167)" />
    <polyline
       points="1417,2598 1417,3070"
       id="polyline32"
       transform="matrix(1.379294,0,0,1.379294,-1920.7977,-1855.3167)" />
    <polyline
       points="1239,2598 1239,3070"
       id="polyline34"
       transform="matrix(1.379294,0,0,1.379294,-1920.7977,-1855.3167)" />
    <polyline
       points="1063,2598 1063,3070"
       id="polyline36"
       transform="matrix(1.379294,0,0,1.379294,-1920.7977,-1855.3167)" />
    <polyline
       points="886,2598 886,3070"
       id="polyline38"
       transform="matrix(1.379294,0,0,1.379294,-1920.7977,-1855.3167)" />
    <polyline
       points="708,2456 708,3070"
       id="polyline40"
       transform="matrix(1.379294,0,0,1.379294,-1920.7977,-1855.3167)" />
    <polyline
       points="3543,2456 3543,3070"
       id="polyline74"
       transform="matrix(1.379294,0,0,1.379294,-1920.7977,-1855.3167)" />
    <polyline
       points="-2125,2598 3543,2598"
       id="polyline76"
       transform="matrix(0.68935657,0,0,1.379294,523.65071,-1855.3167)" />
    <polyline
       points="3543,3070 -1948,3070 -2125,3070"
       id="polyline78"
       transform="matrix(0.68670805,0,0,1.379294,533.03432,-1855.3167)" />
    <polyline
       points="9035,2598 9035,3070"
       id="polyline80"
       transform="matrix(1.379294,0,0,1.379294,-1920.7977,-1855.3167)" />
    <polyline
       points="8858,2598 8858,3070"
       id="polyline82"
       transform="matrix(1.379294,0,0,1.379294,-1920.7977,-1855.3167)" />
    <polyline
       points="8681,2598 8681,3070"
       id="polyline84"
       transform="matrix(1.379294,0,0,1.379294,-1920.7977,-1855.3167)" />
    <polyline
       points="8503,2598 8503,3070"
       id="polyline86"
       transform="matrix(1.379294,0,0,1.379294,-1920.7977,-1855.3167)" />
    <polyline
       points="8326,2598 8326,3070"
       id="polyline88"
       transform="matrix(1.379294,0,0,1.379294,-1920.7977,-1855.3167)" />
    <polyline
       points="8150,2598 8150,3070"
       id="polyline90"
       transform="matrix(1.379294,0,0,1.379294,-1920.7977,-1855.3167)" />
    <polyline
       points="7972,2598 7972,3070"
       id="polyline92"
       transform="matrix(1.379294,0,0,1.379294,-1920.7977,-1855.3167)" />
    <polyline
       points="7795,2456 7795,3070"
       id="polyline94"
       transform="matrix(1.379294,0,0,1.379294,-1920.7977,-1855.3167)" />
    <polyline
       points="7617,2598 7617,3070"
       id="polyline96"
       transform="matrix(1.379294,0,0,1.379294,-1920.7977,-1855.3167)" />
    <polyline
       points="7441,2598 7441,3070"
       id="polyline98"
       transform="matrix(1.379294,0,0,1.379294,-1920.7977,-1855.3167)" />
    <polyline
       points="7264,2598 7264,3070"
       id="polyline100"
       transform="matrix(1.379294,0,0,1.379294,-1920.7977,-1855.3167)" />
    <polyline
       points="7086,2598 7086,3070"
       id="polyline102"
       transform="matrix(1.379294,0,0,1.379294,-1920.7977,-1855.3167)" />
    <polyline
       points="6909,2598 6909,3070"
       id="polyline104"
       transform="matrix(1.379294,0,0,1.379294,-1920.7977,-1855.3167)" />
    <polyline
       points="6732,2598 6732,3070"
       id="polyline106"
       transform="matrix(1.379294,0,0,1.379294,-1920.7977,-1855.3167)" />
    <polyline
       points="6555,2598 6555,3070"
       id="polyline108"
       transform="matrix(1.379294,0,0,1.379294,-1920.7977,-1855.3167)" />
    <polyline
       points="6377,2456 6377,3070"
       id="polyline110"
       transform="matrix(1.379294,0,0,1.379294,-1920.7977,-1855.3167)" />
    <polyline
       points="6200,2598 6200,3070"
       id="polyline112"
       transform="matrix(1.379294,0,0,1.379294,-1920.7977,-1855.3167)" />
    <polyline
       points="6024,2598 6024,3070"
       id="polyline114"
       transform="matrix(1.379294,0,0,1.379294,-1920.7977,-1855.3167)" />
    <polyline
       points="5846,2598 5846,3070"
       id="polyline116"
       transform="matrix(1.379294,0,0,1.379294,-1920.7977,-1855.3167)" />
    <polyline
       points="5669,2598 5669,3070"
       id="polyline118"
       transform="matrix(1.379294,0,0,1.379294,-1920.7977,-1855.3167)" />
    <polyline
       points="5491,2598 5491,3070"
       id="polyline120"
       transform="matrix(1.379294,0,0,1.379294,-1920.7977,-1855.3167)" />
    <polyline
       points="5315,2598 5315,3070"
       id="polyline122"
       transform="matrix(1.379294,0,0,1.379294,-1920.7977,-1855.3167)" />
    <polyline
       points="5138,2598 5138,3070"
       id="polyline124"
       transform="matrix(1.379294,0,0,1.379294,-1920.7977,-1855.3167)" />
    <polyline
       points="4960,2409 4960,3070"
       id="polyline126"
       transform="matrix(1.379294,0,0,1.379294,-1920.7977,-1855.3167)" />
    <polyline
       points="4783,2598 4783,3070"
       id="polyline128"
       transform="matrix(1.379294,0,0,1.379294,-1920.7977,-1855.3167)" />
    <polyline
       points="4606,2598 4606,3070"
       id="polyline130"
       transform="matrix(1.379294,0,0,1.379294,-1920.7977,-1855.3167)" />
    <polyline
       points="4429,2598 4429,3070"
       id="polyline132"
       transform="matrix(1.379294,0,0,1.379294,-1920.7977,-1855.3167)" />
    <polyline
       points="4251,2598 4251,3070"
       id="polyline134"
       transform="matrix(1.379294,0,0,1.379294,-1920.7977,-1855.3167)" />
    <polyline
       points="4074,2598 4074,3070"
       id="polyline136"
       transform="matrix(1.379294,0,0,1.379294,-1920.7977,-1855.3167)" />
    <polyline
       points="3898,2598 3898,3070"
       id="polyline138"
       transform="matrix(1.379294,0,0,1.379294,-1920.7977,-1855.3167)" />
    <polyline
       points="3720,2598 3720,3070"
       id="polyline140"
       transform="matrix(1.379294,0,0,1.379294,-1920.7977,-1855.3167)" />
    <polyline
       points="9212,2456 9212,3070"
       id="polyline142"
       transform="matrix(1.379294,0,0,1.379294,-1920.7977,-1855.3167)" />
    <polyline
       points="3543,2598 9212,2598"
       id="polyline144"
       transform="matrix(1.379294,0,0,1.379294,-1920.7977,-1855.3167)" />
    <polyline
       points="9212,3070 3720,3070 0,3070"
       id="polyline146"
       transform="matrix(1.2735745,0,0,1.379294,-946.90931,-1855.3167)" />
    <rect
       x="5116.3604"
       y="4334.9551"
       width="1628.9463"
       height="3257.8926"
       rx="0"
       style="fill:#dfdfdf;stroke-width:11.0343523"
       id="rect148" />
    <rect
       x="981.53589"
       y="4008.0623"
       width="1628.9463"
       height="3257.8926"
       rx="0"
       style="fill:#dfdfdf;stroke-width:11.0343523"
       id="rect150" />
    <rect
       x="7592.1934"
       y="4660.4683"
       width="1628.9463"
       height="3257.8926"
       rx="0"
       style="fill:#dfdfdf;stroke-width:11.0343523"
       id="rect152" />
    <rect
       x="9807.3389"
       y="5638.3877"
       width="976.54016"
       height="325.5134"
       rx="0"
       style="fill:#dfdfdf;stroke-width:11.0343523"
       id="rect158" />
    <rect
       x="5116.3604"
       y="5963.9009"
       width="1628.9463"
       height="651.02679"
       rx="0"
       id="rect160"
       style="stroke-width:11.0343523" />
    <rect
       x="981.53589"
       y="4606.1265"
       width="1628.9463"
       height="651.02679"
       rx="0"
       id="rect162"
       style="stroke-width:11.0343523" />
    <rect
       x="7592.1934"
       y="6289.4146"
       width="1628.9463"
       height="651.02679"
       rx="0"
       id="rect164"
       style="stroke-width:11.0343523" />
    <circle
       cx="6549.4468"
       cy="6289.4146"
       r="64.82682"
       style="fill:#0000ff;stroke:#0000ff;stroke-width:44.13740921"
       id="circle170" />
    <circle
       cx="2414.6223"
       cy="4931.6396"
       r="64.82682"
       style="fill:#0000ff;stroke:#0000ff;stroke-width:44.13740921"
       id="circle172" />
    <circle
       cx="9026.6592"
       cy="6614.9277"
       r="64.82682"
       style="fill:#0000ff;stroke:#0000ff;stroke-width:44.13740921"
       id="circle174" />
    <polyline
       points="3118,3590 2834,3779"
       style="stroke:#0000ff"
       id="polyline178"
       transform="matrix(1.379294,0,0,1.379294,-1920.7977,-1855.3167)" />
    <polyline
       points="1322,3590 1039,3779"
       style="stroke:#0000ff"
       id="polyline180"
       transform="matrix(1.379294,0,0,1.379294,-1920.7977,-1855.3167)" />
    <polyline
       points="4913,3590 4629,3779"
       style="stroke:#0000ff"
       id="polyline184"
       transform="matrix(1.379294,0,0,1.379294,-1920.7977,-1855.3167)" />
    <polyline
       points="6519,3590 6236,3779"
       style="stroke:#0000ff"
       id="polyline186"
       transform="matrix(1.379294,0,0,1.379294,-1920.7977,-1855.3167)" />
    <polyline
       points="8314,3590 8031,3779"
       style="stroke:#0000ff"
       id="polyline188"
       transform="matrix(1.379294,0,0,1.379294,-1920.7977,-1855.3167)" />
    <polyline
       points="7937,6141 8173,6141 8173,7322 8346,7322"
       style="stroke:#0000ff"
       id="polyline196"
       transform="matrix(1.379294,0,0,1.379294,-1920.7977,-1855.3167)" />
    <polygon
       points="8504,7322 8347,7275 8347,7370 8347,7370 "
       style="fill:#0000ff;stroke:#0000ff"
       id="polygon198"
       transform="matrix(1.379294,0,0,1.379294,-1920.7977,-1855.3167)" />
    <polyline
       points="8173,3543 8173,5669 8346,5669"
       style="stroke:#0000ff"
       id="polyline200"
       transform="matrix(1.379294,0,0,1.379294,-1920.7977,-1855.3167)" />
    <polygon
       points="8504,5669 8347,5622 8347,5716 8347,5716 "
       style="fill:#0000ff;stroke:#0000ff"
       id="polygon202"
       transform="matrix(1.379294,0,0,1.379294,-1920.7977,-1855.3167)" />
    <polyline
       points="9212,3070 9070,3307 8314,3307 8173,3543 8031,3307 7228,3307 7086,3070"
       style="stroke:#0000ff"
       id="polyline204"
       transform="matrix(1.379294,0,0,1.379294,-1920.7977,-1855.3167)" />
    <polyline
       points="3898,3070 4015,3307 4629,3307 4771,3543 4913,3307 5385,3307 5491,3070"
       style="stroke:#0000ff"
       id="polyline206"
       transform="matrix(1.379294,0,0,1.379294,-1920.7977,-1855.3167)" />
    <polyline
       points="5491,3070 5622,3307 6236,3307 6377,3543 6519,3307 6909,3307 7086,3070"
       style="stroke:#0000ff"
       id="polyline208"
       transform="matrix(1.379294,0,0,1.379294,-1920.7977,-1855.3167)" />
    <polyline
       points="2303,3070 2409,3307 2834,3307 2976,3543 3118,3307 3779,3307 3898,3070"
       style="stroke:#0000ff"
       id="polyline210"
       transform="matrix(1.379294,0,0,1.379294,-1920.7977,-1855.3167)" />
    <polyline
       points="708,3070 850,3307 1039,3307 1181,3543 1322,3307 2173,3307 2303,3070"
       style="stroke:#0000ff"
       id="polyline212"
       transform="matrix(1.379294,0,0,1.379294,-1920.7977,-1855.3167)" />
    <polyline
       points="4771,3543 4771,6141 4944,6141"
       style="stroke:#0000ff"
       id="polyline214"
       transform="matrix(1.379294,0,0,1.379294,-1920.7977,-1855.3167)" />
    <polygon
       points="5103,6141 4945,6094 4945,6188 4945,6188 "
       style="fill:#0000ff;stroke:#0000ff"
       id="polygon216"
       transform="matrix(1.379294,0,0,1.379294,-1920.7977,-1855.3167)" />
    <polyline
       points="6377,3543 6377,4015 6519,4157 6519,6377 6740,6377"
       style="stroke:#0000ff"
       id="polyline218"
       transform="matrix(1.379294,0,0,1.379294,-1920.7977,-1855.3167)" />
    <polygon
       points="6898,6377 6741,6330 6741,6425 6741,6425 "
       style="fill:#0000ff;stroke:#0000ff"
       id="polygon220"
       transform="matrix(1.379294,0,0,1.379294,-1920.7977,-1855.3167)" />
    <polyline
       points="6141,5905 6377,5905 6377,7086 6740,7086"
       style="stroke:#0000ff"
       id="polyline222"
       transform="matrix(1.379294,0,0,1.379294,-1920.7977,-1855.3167)" />
    <polygon
       points="6898,7086 6741,7039 6741,7133 6741,7133 "
       style="fill:#0000ff;stroke:#0000ff"
       id="polygon224"
       transform="matrix(1.379294,0,0,1.379294,-1920.7977,-1855.3167)" />
    <polygon
       points="5103,6850 4945,6803 4945,6897 4945,6897 "
       style="fill:#0000ff;stroke:#0000ff"
       id="polygon228"
       transform="matrix(1.379294,0,0,1.379294,-1920.7977,-1855.3167)" />
    <polygon
       points="3150,6566 3150,6661 3150,6661 3308,6614 "
       style="fill:#0000ff;stroke:#0000ff"
       id="polygon232"
       transform="matrix(1.379294,0,0,1.379294,-3579.7896,-1855.3167)" />
    <polygon
       points="3150,5952 3308,5905 3150,5858 3150,5952 "
       style="fill:#0000ff;stroke:#0000ff"
       id="polygon240"
       transform="matrix(1.379294,0,0,1.379294,-3579.7896,-2887.5784)" />
    <g
       style="fill:#000000;stroke-width:0"
       id="g242">
      <text
         xml:space="preserve"
         x="2916.3865"
         y="1663.2623"
         font-style="normal"
         font-weight="normal"
         font-size="152"
         id="text246"
         style="font-style:normal;font-weight:normal;font-size:209.6526947px;font-family:'Helvetica Narrow';text-anchor:end;stroke-width:0">32</text>
      <text
         xml:space="preserve"
         x="1059.8567"
         y="1663.2623"
         font-style="normal"
         font-weight="normal"
         font-size="152"
         id="text248"
         style="font-style:normal;font-weight:normal;font-size:209.6526947px;font-family:'Helvetica Narrow';text-anchor:start;stroke-width:0">39</text>
      <text
         xml:space="preserve"
         x="961.92676"
         y="1663.2623"
         font-style="normal"
         font-weight="normal"
         font-size="152"
         id="text250"
         style="font-style:normal;font-weight:normal;font-size:209.6526947px;font-family:'Helvetica Narrow';text-anchor:end;stroke-width:0">40</text>
      <text
         xml:space="preserve"
         x="-894.60297"
         y="1663.2623"
         font-style="normal"
         font-weight="normal"
         font-size="152"
         id="text252"
         style="font-style:normal;font-weight:normal;font-size:209.6526947px;font-family:'Helvetica Narrow';text-anchor:start;stroke-width:0">47</text>
      <text
         xml:space="preserve"
         x="672"
         y="2551"
         font-style="normal"
         font-weight="normal"
         font-size="152"
         id="text254"
         style="font-style:normal;font-weight:normal;font-size:152px;font-family:'Helvetica Narrow';text-anchor:end" />
      <text
         xml:space="preserve"
         x="-672"
         y="2551"
         font-style="normal"
         font-weight="normal"
         font-size="152"
         id="text256"
         style="font-style:normal;font-weight:normal;font-size:152px;font-family:'Helvetica Narrow';text-anchor:start" />
      <text
         xml:space="preserve"
         x="-744"
         y="2551"
         font-style="normal"
         font-weight="normal"
         font-size="152"
         id="text258"
         style="font-style:normal;font-weight:normal;font-size:152px;font-family:'Helvetica Narrow';text-anchor:end" />
      <text
         xml:space="preserve"
         x="-2090"
         y="2551"
         font-style="normal"
         font-weight="normal"
         font-size="152"
         id="text260"
         style="font-style:normal;font-weight:normal;font-size:152px;font-family:'Helvetica Narrow';text-anchor:start" />
      <text
         xml:space="preserve"
         x="10735.604"
         y="1663.2623"
         font-style="normal"
         font-weight="normal"
         font-size="152"
         id="text262"
         style="font-style:normal;font-weight:normal;font-size:209.6526947px;font-family:'Helvetica Narrow';text-anchor:end;stroke-width:0">0</text>
      <text
         xml:space="preserve"
         x="8781.1445"
         y="1663.2623"
         font-style="normal"
         font-weight="normal"
         font-size="152"
         id="text264"
         style="font-style:normal;font-weight:normal;font-size:209.6526947px;font-family:'Helvetica Narrow';text-anchor:end;stroke-width:0">8</text>
      <text
         xml:space="preserve"
         x="6826.6851"
         y="1663.2623"
         font-style="normal"
         font-weight="normal"
         font-size="152"
         id="text266"
         style="font-style:normal;font-weight:normal;font-size:209.6526947px;font-family:'Helvetica Narrow';text-anchor:end;stroke-width:0">16</text>
      <text
         xml:space="preserve"
         x="4870.8462"
         y="1663.2623"
         font-style="normal"
         font-weight="normal"
         font-size="152"
         id="text268"
         style="font-style:normal;font-weight:normal;font-size:209.6526947px;font-family:'Helvetica Narrow';text-anchor:end;stroke-width:0">24</text>
      <text
         xml:space="preserve"
         x="3015.6956"
         y="1663.2623"
         font-style="normal"
         font-weight="normal"
         font-size="152"
         id="text270"
         style="font-style:normal;font-weight:normal;font-size:209.6526947px;font-family:'Helvetica Narrow';text-anchor:start;stroke-width:0">31</text>
      <text
         xml:space="preserve"
         x="6924.6147"
         y="1663.2623"
         font-style="normal"
         font-weight="normal"
         font-size="152"
         id="text272"
         style="font-style:normal;font-weight:normal;font-size:209.6526947px;font-family:'Helvetica Narrow';text-anchor:start;stroke-width:0">15</text>
      <text
         xml:space="preserve"
         x="8879.0742"
         y="1663.2623"
         font-style="normal"
         font-weight="normal"
         font-size="152"
         id="text274"
         style="font-style:normal;font-weight:normal;font-size:209.6526947px;font-family:'Helvetica Narrow';text-anchor:start;stroke-width:0">7</text>
      <text
         xml:space="preserve"
         x="4970.1553"
         y="1663.2623"
         font-style="normal"
         font-weight="normal"
         font-size="152"
         id="text276"
         style="font-style:normal;font-weight:normal;font-size:209.6526947px;font-family:'Helvetica Narrow';text-anchor:start;stroke-width:0">23</text>
      <g
         transform="matrix(0,-1.379294,1.379294,0,10459.745,4660.4683)"
         id="g278">
        <text
           xml:space="preserve"
           x="0"
           y="0"
           font-style="normal"
           font-weight="normal"
           font-size="404"
           id="text280"
           style="font-style:normal;font-weight:normal;font-size:404px;font-family:Helvetica;text-anchor:middle">...</text>
      </g>
      <g
         transform="matrix(0,-1.379294,1.379294,0,10459.745,7267.334)"
         id="g282">
        <text
           xml:space="preserve"
           x="0"
           y="0"
           font-style="normal"
           font-weight="normal"
           font-size="404"
           id="text284"
           style="font-style:normal;font-weight:normal;font-size:404px;font-family:Helvetica;text-anchor:middle">...</text>
      </g>
      <g
         transform="matrix(0,-1.379294,1.379294,0,11073.906,5899.0743)"
         id="g286">
        <text
           xml:space="preserve"
           x="0"
           y="0"
           font-style="normal"
           font-weight="normal"
           font-size="152"
           id="text288"
           style="font-style:normal;font-weight:normal;font-size:152px;font-family:Helvetica;text-anchor:middle"><tspan
             style="font-size:200.46391296px"
             id="tspan3509">P1 table </tspan></text>
      </g>
      <text
         xml:space="preserve"
         x="-2125"
         y="2314"
         font-style="normal"
         font-weight="normal"
         font-size="152"
         id="text290"
         style="font-style:normal;font-weight:normal;font-size:152px;font-family:Helvetica;text-anchor:start" />
      <text
         xml:space="preserve"
         x="5833.5933"
         y="6363.1475"
         font-style="normal"
         font-weight="normal"
         font-size="152"
         id="text292"
         style="font-style:normal;font-weight:normal;font-size:209.6526947px;font-family:Helvetica;text-anchor:middle;stroke-width:0"><tspan
           style="font-size:276.49868774px;stroke-width:0"
           id="tspan3497">P3 entry</tspan></text>
      <g
         transform="matrix(0,-1.379294,1.379294,0,5972.902,7267.334)"
         id="g296">
        <text
           xml:space="preserve"
           x="0"
           y="0"
           font-style="normal"
           font-weight="normal"
           font-size="404"
           id="text298"
           style="font-style:normal;font-weight:normal;font-size:404px;font-family:Helvetica;text-anchor:middle">...</text>
      </g>
      <g
         transform="matrix(0,-1.379294,1.379294,0,5972.902,5311.495)"
         id="g300">
        <text
           xml:space="preserve"
           x="0"
           y="0"
           font-style="normal"
           font-weight="normal"
           font-size="404"
           id="text302"
           style="font-style:normal;font-weight:normal;font-size:404px;font-family:Helvetica;text-anchor:middle">...</text>
      </g>
      <text
         xml:space="preserve"
         x="5930.144"
         y="4203.9219"
         font-style="normal"
         font-weight="normal"
         font-size="152"
         id="text304"
         style="font-style:normal;font-weight:normal;font-size:209.6526947px;font-family:Helvetica;text-anchor:middle;stroke-width:0"><tspan
           style="font-size:276.49868774px;stroke-width:0"
           id="tspan3505">P3 table</tspan></text>
      <g
         transform="matrix(0,-1.379294,1.379294,0,1838.0785,6166.2456)"
         id="g306">
        <text
           xml:space="preserve"
           x="0"
           y="0"
           font-style="normal"
           font-weight="normal"
           font-size="404"
           id="text308"
           style="font-style:normal;font-weight:normal;font-size:404px;font-family:Helvetica;text-anchor:middle">...</text>
      </g>
      <g
         transform="matrix(0,-1.379294,1.379294,0,1838.0785,4322.3854)"
         id="g310">
        <text
           xml:space="preserve"
           x="0"
           y="0"
           font-style="normal"
           font-weight="normal"
           font-size="404"
           id="text312"
           style="font-style:normal;font-weight:normal;font-size:404px;font-family:Helvetica;text-anchor:middle">...</text>
      </g>
      <text
         xml:space="preserve"
         x="1697.3895"
         y="5005.3726"
         font-style="normal"
         font-weight="normal"
         font-size="152"
         id="text314"
         style="font-style:normal;font-weight:normal;font-size:209.6526947px;font-family:Helvetica;text-anchor:middle;stroke-width:0"><tspan
           style="font-size:276.49868774px;stroke-width:0"
           id="tspan3495">P4 entry</tspan></text>
      <text
         xml:space="preserve"
         x="3874"
         y="3968"
         font-style="normal"
         font-weight="normal"
         font-size="152"
         id="text318"
         style="font-style:normal;font-weight:normal;font-size:152px;font-family:Helvetica;text-anchor:middle" />
      <text
         xml:space="preserve"
         x="1763.5956"
         y="3878.4084"
         font-style="normal"
         font-weight="normal"
         font-size="152"
         id="text320"
         style="font-style:normal;font-weight:normal;font-size:209.6526947px;font-family:Helvetica;text-anchor:middle;stroke-width:0"><tspan
           style="font-size:276.49868774px;stroke-width:0"
           id="tspan3503">P4 table</tspan></text>
      <text
         xml:space="preserve"
         x="8309.4258"
         y="6688.6606"
         font-style="normal"
         font-weight="normal"
         font-size="152"
         id="text322"
         style="font-style:normal;font-weight:normal;font-size:209.6526947px;font-family:Helvetica;text-anchor:middle;stroke-width:0"><tspan
           style="font-size:276.49868774px;stroke-width:0"
           id="tspan3499">P2 entry </tspan></text>
      <g
         transform="matrix(0,-1.379294,1.379294,0,8450.114,7592.8473)"
         id="g326">
        <text
           xml:space="preserve"
           x="0"
           y="0"
           font-style="normal"
           font-weight="normal"
           font-size="404"
           id="text328"
           style="font-style:normal;font-weight:normal;font-size:404px;font-family:Helvetica;text-anchor:middle">...</text>
      </g>
      <g
         transform="matrix(0,-1.379294,1.379294,0,8450.114,5638.3877)"
         id="g330">
        <text
           xml:space="preserve"
           x="0"
           y="0"
           font-style="normal"
           font-weight="normal"
           font-size="404"
           id="text332"
           style="font-style:normal;font-weight:normal;font-size:404px;font-family:Helvetica;text-anchor:middle">...</text>
      </g>
      <text
         xml:space="preserve"
         x="8405.9766"
         y="4529.4355"
         font-style="normal"
         font-weight="normal"
         font-size="152"
         id="text334"
         style="font-style:normal;font-weight:normal;font-size:209.6526947px;font-family:Helvetica;text-anchor:middle;stroke-width:0"><tspan
           style="font-size:276.49868774px;stroke-width:0"
           id="tspan3507">P2 table</tspan></text>
      <text
         x="2031"
         y="5622"
         font-style="normal"
         font-weight="normal"
         font-size="152"
         id="text346"
         style="font-style:normal;font-weight:normal;font-size:152px;font-family:Helvetica;text-anchor:middle" />
      <text
         x="2444.6677"
         y="3292.2085"
         font-style="normal"
         font-weight="normal"
         font-size="152"
         id="text350"
         style="font-style:normal;font-weight:normal;font-size:209.6526947px;font-family:Helvetica;text-anchor:start;fill:#0000ff;stroke-width:0">9</text>
      <text
         x="-31.164932"
         y="3292.2085"
         font-style="normal"
         font-weight="normal"
         font-size="152"
         id="text352"
         style="font-style:normal;font-weight:normal;font-size:209.6526947px;font-family:Helvetica;text-anchor:start;fill:#0000ff;stroke-width:0">9</text>
      <text
         x="1370"
         y="6708"
         font-style="normal"
         font-weight="normal"
         font-size="152"
         id="text354"
         style="font-style:normal;font-weight:normal;font-size:152px;font-family:Helvetica;text-anchor:start;fill:#0000ff" />
      <text
         x="4920.5005"
         y="3292.2085"
         font-style="normal"
         font-weight="normal"
         font-size="152"
         id="text356"
         style="font-style:normal;font-weight:normal;font-size:209.6526947px;font-family:Helvetica;text-anchor:start;fill:#0000ff;stroke-width:0">9</text>
      <text
         x="7135.647"
         y="3292.2085"
         font-style="normal"
         font-weight="normal"
         font-size="152"
         id="text358"
         style="font-style:normal;font-weight:normal;font-size:209.6526947px;font-family:Helvetica;text-anchor:start;fill:#0000ff;stroke-width:0">9</text>
      <text
         x="9612.8584"
         y="3292.2085"
         font-style="normal"
         font-weight="normal"
         font-size="152"
         id="text360"
         style="font-style:normal;font-weight:normal;font-size:209.6526947px;font-family:Helvetica;text-anchor:start;fill:#0000ff;stroke-width:0">12</text>
      <text
         x="1181"
         y="7532.2715"
         font-style="normal"
         font-weight="normal"
         font-size="152"
         id="text364"
         style="font-style:normal;font-weight:normal;font-size:152px;font-family:Helvetica;text-anchor:start" />
      <text
         x="1946.0945"
         y="6998.52"
         font-style="normal"
         font-weight="normal"
         font-size="152"
         id="text344-8-6"
         style="font-style:normal;font-variant:normal;font-weight:normal;font-stretch:normal;font-size:183.75857544px;line-height:125%;font-family:Helvetica;-inkscape-font-specification:'Helvetica, Normal';text-align:center;writing-mode:lr-tb;text-anchor:middle;fill:#000000;stroke:#000000;stroke-width:0;stroke-linecap:butt;stroke-linejoin:miter"
         sodipodi:linespacing="125%">
        <tspan
           style="font-style:normal;font-variant:normal;font-weight:normal;font-stretch:normal;font-size:217.16923523px;line-height:125%;font-family:Helvetica;-inkscape-font-specification:'Helvetica, Normal';text-align:center;writing-mode:lr-tb;text-anchor:middle;stroke-width:0"
           id="tspan3493-3-2" />
      </text>
      <rect
         style="fill:none;stroke:#000000;stroke-width:11.03435135;stroke-linecap:butt;stroke-linejoin:miter"
         x="982.91455"
         y="6615.4541"
         width="1628.9463"
         height="651.02667"
         rx="0"
         id="rect162-5" />
      <circle
         cx="2416.001"
         cy="6940.9673"
         style="fill:#0000ff;stroke:#0000ff;stroke-width:44.1374054;stroke-linecap:butt;stroke-linejoin:miter"
         id="circle172-4"
         r="64.826813" />
      <text
         xml:space="preserve"
         x="1698.7681"
         y="7014.7002"
         font-style="normal"
         font-weight="normal"
         font-size="152"
         id="text314-5"
         style="font-style:normal;font-weight:normal;font-size:209.6526947px;font-family:Helvetica;text-anchor:middle;fill:#000000;stroke:#000000;stroke-width:0;stroke-linecap:butt;stroke-linejoin:miter"><tspan
           style="font-size:276.49868774px;stroke-width:0"
           id="tspan3495-6">P4 entry</tspan></text>
      <text
         xml:space="preserve"
         x="1850.0507"
         y="7707.2915"
         font-style="normal"
         font-weight="normal"
         font-size="152"
         id="text314-5-0"
         style="font-style:normal;font-weight:normal;font-size:209.6526947px;font-family:Helvetica;text-anchor:middle;fill:#000000;stroke:#000000;stroke-width:0;stroke-linecap:butt;stroke-linejoin:miter"><tspan
           style="font-size:276.49868774px;stroke-width:0"
           id="tspan3495-6-4">Recursive</tspan></text>
      <text
         xml:space="preserve"
         x="1850.0507"
         y="8075.9565"
         font-style="normal"
         font-weight="normal"
         font-size="152"
         id="text314-5-0-9"
         style="font-style:normal;font-weight:normal;font-size:209.6526947px;font-family:Helvetica;text-anchor:middle;fill:#000000;stroke:#000000;stroke-width:0;stroke-linecap:butt;stroke-linejoin:miter"><tspan
           style="font-size:276.49868774px;stroke-width:0"
           id="tspan3495-6-4-4">Mapping</tspan></text>
    </g>
    <polygon
       transform="matrix(-0.04389183,-1.3785956,1.3785953,-0.04389183,-7989.4015,12118.209)"
       points="3308,6614 3150,6566 3150,6661 3150,6661 "
       style="fill:#0000ff;stroke:#0000ff;stroke-width:8;stroke-linecap:butt;stroke-linejoin:miter"
       id="polygon232-0" />
    <path
       style="fill:none;fill-rule:evenodd;stroke:#0000ff;stroke-width:18.43324471px;stroke-linecap:butt;stroke-linejoin:miter;stroke-opacity:1"
       d="m 2442.0312,6946.3089 266.2435,0 0,857.4608 -1726.66762,0 0,-340.6352"
       id="path5127"
       inkscape:connector-curvature="0" />
    <path
       style="fill:none;fill-rule:evenodd;stroke:#0000ff;stroke-width:18.43324471px;stroke-linecap:butt;stroke-linejoin:miter;stroke-opacity:1"
       d="m -290.8551,3028.7157 0,4238.6772 1057.59273,0"
       id="path5151"
       inkscape:connector-curvature="0" />
    <path
       style="fill:none;fill-rule:evenodd;stroke:#0000ff;stroke-width:18.43324471px;stroke-linecap:butt;stroke-linejoin:miter;stroke-opacity:1"
       d="m 2184.2443,3028.0234 0,454.7374 -1644.52923,0 0,1771.8833 271.31969,0"
       id="path5159"
       inkscape:connector-curvature="0" />
    <path
       style="fill:none;fill-rule:evenodd;stroke:#0000ff;stroke-width:18.43324471px;stroke-linecap:butt;stroke-linejoin:miter;stroke-opacity:1"
       d="m 2487.8993,4933.821 1108.0428,0 0,2658.5199 1339.0484,0"
       id="path5163"
       inkscape:connector-curvature="0" />
  </g>
</svg>
